<svg width="45" height="45" viewBox="0 0 45 45" fill="none" xmlns="http://www.w3.org/2000/svg">
<circle cx="22.5" cy="22.5" r="22.5" fill="white"/>
<path fill-rule="evenodd" clip-rule="evenodd" d="M21.4002 28.4939H16.1494C15.8044 28.4939 15.5244 28.2139 15.5244 27.8689C15.5244 27.5239 15.8044 27.2439 16.1494 27.2439H21.4002C21.7452 27.2439 22.0252 27.5239 22.0252 27.8689C22.0252 28.2139 21.7452 28.4939 21.4002 28.4939Z" fill="#222222"/>
<path fill-rule="evenodd" clip-rule="evenodd" d="M28.9922 20.417H23.7422C23.3972 20.417 23.1172 20.137 23.1172 19.792C23.1172 19.447 23.3972 19.167 23.7422 19.167H28.9922C29.3372 19.167 29.6172 19.447 29.6172 19.792C29.6172 20.137 29.3372 20.417 28.9922 20.417Z" fill="#222222"/>
<mask id="mask0_2377_3520" style="mask-type:luminance" maskUnits="userSpaceOnUse" x="15" y="17" width="6" height="6">
<path fill-rule="evenodd" clip-rule="evenodd" d="M15.5 17.167H20.6882V22.3267H15.5V17.167Z" fill="white"/>
</mask>
<g mask="url(#mask0_2377_3520)">
<path fill-rule="evenodd" clip-rule="evenodd" d="M18.0942 18.4167C17.3533 18.4167 16.75 19.0134 16.75 19.7476C16.75 20.4809 17.3533 21.0767 18.0942 21.0767C18.8358 21.0767 19.4383 20.4809 19.4383 19.7476C19.4383 19.0134 18.8358 18.4167 18.0942 18.4167ZM18.0942 22.3267C16.6642 22.3267 15.5 21.1701 15.5 19.7476C15.5 18.3251 16.6642 17.1667 18.0942 17.1667C19.525 17.1667 20.6883 18.3251 20.6883 19.7476C20.6883 21.1701 19.525 22.3267 18.0942 22.3267Z" fill="#222222"/>
</g>
<path fill-rule="evenodd" clip-rule="evenodd" d="M27.4895 26.5066C26.7479 26.5066 26.1445 27.1033 26.1445 27.8366C26.1445 28.5708 26.7479 29.1666 27.4895 29.1666C28.2304 29.1666 28.8329 28.5708 28.8329 27.8366C28.8329 27.1033 28.2304 26.5066 27.4895 26.5066ZM27.4895 30.4166C26.0587 30.4166 24.8945 29.2591 24.8945 27.8366C24.8945 26.4141 26.0587 25.2566 27.4895 25.2566C28.9195 25.2566 30.0829 26.4141 30.0829 27.8366C30.0829 29.2591 28.9195 30.4166 27.4895 30.4166Z" fill="#222222"/>
</svg>
